# Blender v2.79 (sub 0) OBJ File: ''
# www.blender.org
mtllib untitled.mtl
o Cube.090_Cube.093
v 0.155843 0.730000 -0.640000
v 0.238133 0.730000 -0.613262
v 0.288991 0.730000 -0.543262
v 0.288991 0.730000 -0.456738
v 0.238133 0.730000 -0.386738
v 0.155843 0.730000 -0.360000
v 16.844156 0.200799 -0.836144
v 16.844156 0.200799 -0.163856
v 0.155843 0.200799 -0.163856
v 0.155844 0.200799 -0.836144
v 16.844156 0.799201 -0.836143
v 16.844154 0.799201 -0.163856
v 0.155843 0.799201 -0.163856
v 0.155843 0.799201 -0.836144
v 16.900000 0.500000 -1.000000
v 16.900000 0.500000 0.000000
v 0.100000 0.500000 -0.000000
v 0.100000 0.500000 -1.000000
v 0.142927 0.730000 -0.640000
v 0.142927 0.730000 -0.360000
v 0.155843 0.799201 -0.360000
v 0.155843 0.799201 -0.640000
v 0.238133 0.799201 -0.386738
v 0.288991 0.799201 -0.543262
v 0.238133 0.799201 -0.613262
v 0.288991 0.799201 -0.456738
vn -0.3090 0.0000 0.9511
vn -0.8090 0.0000 0.5878
vn -1.0000 0.0000 0.0000
vn -0.8090 0.0000 -0.5878
vn -0.3090 0.0000 -0.9511
vn 0.0000 0.0000 -1.0000
vn 0.0000 1.0000 0.0000
vn 0.0000 -1.0000 0.0000
vn 0.9830 0.1835 0.0000
vn -0.0000 0.4803 0.8771
vn -0.9830 0.1835 -0.0000
vn 0.0000 -0.4803 -0.8771
vn 0.0000 0.4803 -0.8771
vn -0.9830 -0.1835 -0.0000
vn -0.0000 -0.4803 0.8771
vn 0.9830 -0.1835 0.0000
vn 0.0000 0.0000 1.0000
usemtl Material.093
s off
f 2//1 22//1 1//1
f 3//2 25//2 2//2
f 4//3 24//3 3//3
f 5//4 26//4 4//4
f 6//5 23//5 5//5
f 6//6 20//6 21//6
f 5//7 4//7 2//7
f 8//8 10//8 7//8
f 24//7 26//7 12//7
f 11//9 16//9 15//9
f 12//10 17//10 16//10
f 20//11 19//11 18//11
f 7//12 18//12 15//12
f 15//13 14//13 11//13
f 9//14 18//14 10//14
f 16//15 9//15 8//15
f 15//16 8//16 7//16
f 19//17 1//17 22//17
f 2//1 25//1 22//1
f 3//2 24//2 25//2
f 4//3 26//3 24//3
f 5//4 23//4 26//4
f 6//5 21//5 23//5
f 2//7 1//7 6//7
f 19//7 20//7 6//7
f 6//7 5//7 2//7
f 4//7 3//7 2//7
f 1//7 19//7 6//7
f 8//8 9//8 10//8
f 12//7 11//7 24//7
f 14//7 22//7 25//7
f 14//7 25//7 24//7
f 21//7 13//7 23//7
f 23//7 13//7 26//7
f 11//7 14//7 24//7
f 26//7 13//7 12//7
f 11//9 12//9 16//9
f 12//10 13//10 17//10
f 18//11 17//11 20//11
f 13//11 21//11 20//11
f 19//11 22//11 14//11
f 17//11 13//11 20//11
f 19//11 14//11 18//11
f 7//12 10//12 18//12
f 15//13 18//13 14//13
f 9//14 17//14 18//14
f 16//15 17//15 9//15
f 15//16 16//16 8//16
