# Blender v2.79 (sub 0) OBJ File: ''
# www.blender.org
mtllib model.mtl
o Cube.011
v 0.400000 0.400000 -0.600000
v 0.400000 0.600000 -0.600000
v 0.400000 0.400000 -1.100000
v 0.400000 0.600000 -1.100000
v 0.600000 0.400000 -0.600000
v 0.600000 0.600000 -0.600000
v 0.600000 0.400000 -1.100000
v 0.600000 0.600000 -1.100000
vn -1.0000 0.0000 0.0000
vn 1.0000 0.0000 0.0000
vn 0.0000 0.0000 1.0000
vn 0.0000 -1.0000 0.0000
vn 0.0000 1.0000 0.0000
usemtl Material.011
s off
f 2//1 3//1 1//1
f 8//2 5//2 7//2
f 6//3 1//3 5//3
f 7//4 1//4 3//4
f 4//5 6//5 8//5
f 2//1 4//1 3//1
f 8//2 6//2 5//2
f 6//3 2//3 1//3
f 7//4 5//4 1//4
f 4//5 2//5 6//5
