# Blender v2.79 (sub 0) OBJ File: ''
# www.blender.org
mtllib verticalLED.mtl
o Cube.000_Cube.001
v -0.400000 -0.394703 -1.000000
v 0.400000 -0.394703 -1.000000
v -0.400000 -0.394703 -1.100000
v 0.400000 -0.394703 -1.100000
v -0.400000 -1.990922 -1.000000
v 0.400000 -1.990921 -1.000000
v -0.400000 -1.990922 -1.100000
v 0.400000 -1.990921 -1.100000
v 0.000000 0.005297 -1.000000
v -0.000000 0.005297 -1.100000
v 0.000000 -2.390922 -1.100000
v 0.000000 -2.390922 -1.000000
vn 0.7071 0.7071 -0.0000
vn -0.0000 -0.0000 -1.0000
vn 0.7071 -0.7071 0.0000
vn -1.0000 -0.0000 0.0000
vn 1.0000 0.0000 0.0000
vn -0.7071 -0.7071 0.0000
vn -0.7071 0.7071 0.0000
usemtl Material.001
s off
f 2//1 10//1 9//1
f 10//2 8//2 11//2
f 8//3 12//3 11//3
f 7//4 1//4 3//4
f 4//5 6//5 8//5
f 11//6 5//6 7//6
f 10//2 7//2 3//2
f 9//7 3//7 1//7
f 2//1 4//1 10//1
f 10//2 4//2 8//2
f 8//3 6//3 12//3
f 7//4 5//4 1//4
f 4//5 2//5 6//5
f 11//6 12//6 5//6
f 10//2 11//2 7//2
f 9//7 10//7 3//7
